<svg width="102" height="50" viewBox="0 0 102 50" fill="none" xmlns="http://www.w3.org/2000/svg">
<path d="M4.36108 32.8992V13.4004C4.36108 7.02888 9.52626 1.86394 15.8976 1.86394H27.4288C29.0298 1.86394 30.6213 2.10539 32.1503 2.58051C33.6083 3.03345 35.1244 3.27443 36.6515 3.2955L62.6355 3.65561C64.9768 3.68809 67.3164 3.53854 69.6344 3.2077L69.8914 3.17136C69.4916 2.22427 68.8219 0.627398 68.7751 0.439679C68.7722 0.428206 68.7704 0.416557 68.7704 0.404674C68.7704 0.137817 69.4816 -0.21567 70.2543 0.170773C70.9116 0.499326 72.1484 2.17668 72.5845 2.78743L75.8917 2.3157C78.003 2.01483 80.1325 1.86394 82.2649 1.86394H86.8019C95.0423 1.86394 101.722 8.54368 101.722 16.7833V29.5166C101.722 37.7564 95.0423 44.4363 86.8019 44.4363H82.2649C80.1325 44.4363 78.003 44.2847 75.8917 43.9839L72.5845 43.5127C72.1484 44.1232 70.9116 45.8008 70.2543 46.1291C69.4816 46.5155 68.7704 46.1619 68.7704 45.8956C68.7704 45.8833 68.7722 45.8716 68.7751 45.8605C68.8219 45.672 69.4916 44.0752 69.8914 43.1287L69.6344 43.0918C67.3164 42.7617 64.9768 42.6118 62.6355 42.644L36.6515 43.004C35.1244 43.0251 33.6083 43.2662 32.1503 43.7193C30.6213 44.1946 29.0298 44.4363 27.4288 44.4363H15.8976C9.52626 44.4363 4.36108 39.2707 4.36108 32.8992Z" fill="#AEC2BB"/>
<path d="M71.5318 5.86954C73.6425 5.56838 75.7726 5.41748 77.9044 5.41748H82.4414C90.6813 5.41748 97.3612 12.0972 97.3612 20.3371V26.7036V33.0701C97.3612 41.3098 90.6813 47.9897 82.4414 47.9897H77.9044C75.7726 47.9897 73.6425 47.8387 71.5318 47.5378L65.2739 46.6458C62.9559 46.315 60.6163 46.1652 58.275 46.198L32.291 46.558C30.7639 46.579 29.2478 46.8196 27.7898 47.2732C26.2608 47.748 24.6693 47.9897 23.0684 47.9897H11.5365C5.16564 47.9897 0 42.8246 0 36.4532L0 26.7036L0 16.9542C0 10.5827 5.16564 5.41748 11.5365 5.41748H23.0684C24.6693 5.41748 26.2608 5.65893 27.7898 6.13405C29.2478 6.58722 30.7639 6.82804 32.291 6.84905L58.275 7.20915C60.6163 7.24187 62.9559 7.09208 65.2739 6.76172L71.5318 5.86954Z" fill="#E5E0E9"/>
<path d="M70.2446 46.3647C72.2371 46.6486 74.2465 46.7915 76.2589 46.7915H80.5401C88.3164 46.7915 94.62 40.4879 94.62 32.7115V26.7035V20.6956C94.62 12.9196 88.3164 6.61597 80.5401 6.61597H76.2589C74.2465 6.61597 72.2371 6.75844 70.2446 7.04262L64.3396 7.88452C62.1522 8.19639 59.9443 8.33752 57.7346 8.30685L33.2135 7.96706C31.7729 7.94721 30.3418 7.71992 28.9662 7.29233C27.5234 6.84396 26.0214 6.61597 24.5106 6.61597H13.6286C7.6153 6.61597 2.74121 11.4903 2.74121 17.5029L2.74121 26.7035V35.9041C2.74121 41.9167 7.6153 46.7915 13.6286 46.7915H24.5106C26.0214 46.7915 27.5234 46.5632 28.9662 46.1148C30.3418 45.6869 31.7729 45.4598 33.2135 45.4399L57.7346 45.0998C59.9443 45.0694 62.1522 45.2104 64.3396 45.5224L70.2446 46.3647Z" fill="#FDFDFE"/>
<path d="M68.3816 6.5642C68.3816 6.5642 66.701 4.12795 65.8939 3.72436C65.0873 3.321 64.3474 3.72435 64.4141 3.99326C64.482 4.26234 65.8265 7.42255 65.8265 7.42255L68.3816 6.5642Z" fill="#E5E0E9"/>
<path d="M68.3816 46.843C68.3816 46.843 66.701 49.2792 65.8939 49.6831C65.0873 50.0864 64.3474 49.6831 64.4141 49.4138C64.482 49.1451 65.8265 45.9849 65.8265 45.9849L68.3816 46.843Z" fill="#E5E0E9"/>
<path d="M94.2741 16.4918C94.6393 16.6432 95.0368 16.6832 95.4272 16.6336C94.3355 13.9166 92.4285 11.6171 90.0063 10.0369C90.8405 11.0303 91.5335 12.142 92.0486 13.3326C92.5748 14.5479 93.0501 15.9845 94.2741 16.4918Z" fill="#6C9ED1"/>
<path d="M94.2741 36.9156C94.6393 36.764 95.0368 36.7242 95.4272 36.7739C94.3355 39.4905 92.4285 41.7903 90.0063 43.3702C90.8405 42.3768 91.5335 41.2653 92.0486 40.0747C92.5748 38.8589 93.0501 37.4225 94.2741 36.9156Z" fill="#6C9ED1"/>
<path d="M43.8159 12.0923C48.9131 12.0292 53.5829 11.903 55.2992 11.903C60.4426 11.903 65.2845 8.07031 65.2845 8.07031H45.3378C44.7706 9.38575 44.2971 10.7407 43.8159 12.0923Z" fill="#3F4045"/>
<path d="M31.1387 11.9846C34.3739 12.1446 38.8318 12.1476 43.0814 12.1007C43.4566 10.7432 43.8646 9.39629 44.3416 8.07031H29.2129C29.8047 9.40015 30.4421 10.7083 31.1387 11.9846Z" fill="#3F4045"/>
<path d="M28.1048 8.07031H22.8232C22.8232 8.07031 22.9245 11.3987 29.7824 11.903C29.9691 11.9167 30.1646 11.9295 30.3642 11.9416C29.5711 10.6717 28.7574 9.41361 28.1048 8.07031Z" fill="#3F4045"/>
<path d="M43.8159 41.3149C48.9131 41.3782 53.5829 41.504 55.2992 41.504C60.4426 41.504 65.2845 45.3368 65.2845 45.3368H45.3378C44.7706 44.0216 44.2971 42.6665 43.8159 41.3149Z" fill="#3F4045"/>
<path d="M31.1387 41.4228C34.3739 41.2624 38.8318 41.2595 43.0814 41.3063C43.4566 42.6637 43.8646 44.0112 44.3416 45.337H29.2129C29.8047 44.0071 30.4421 42.6988 31.1387 41.4228Z" fill="#3F4045"/>
<path d="M28.1048 45.3369H22.8232C22.8232 45.3369 22.9245 42.0086 29.7824 41.5041C29.9691 41.4906 30.1646 41.4777 30.3642 41.4655C29.5711 42.7356 28.7574 43.9935 28.1048 45.3369Z" fill="#3F4045"/>
<path d="M26.756 39.5878C26.756 39.5878 24.033 34.1927 24.033 26.7036C24.033 19.2149 26.756 13.8193 26.756 13.8193C23.7357 12.7654 19.6875 12.3589 17.5088 12.2089C16.5418 12.1424 15.6297 12.6627 15.1997 13.5319C14.0816 15.7918 12.1323 20.6074 12.1323 26.7036C12.1323 32.8001 14.0816 37.6152 15.1997 39.8758C15.6297 40.7444 16.5418 41.2648 17.5088 41.198C19.6875 41.0488 23.7357 40.642 26.756 39.5878ZM68.6343 43.2707C66.9819 43.0413 63.67 42.2815 60.2868 39.771C59.8167 39.4221 59.568 38.8496 59.6183 38.2666C59.784 36.3298 60.1404 31.5983 60.1404 26.7036C60.1404 21.8087 59.784 17.0775 59.6183 15.1406C59.568 14.5575 59.8167 13.985 60.2868 13.6366C63.67 11.1257 66.9819 10.3662 68.6343 10.1362C69.3373 10.0385 70.0304 10.3758 70.3705 10.998C71.3134 12.7224 72.9489 17.099 72.9489 26.7036C72.9489 36.3081 71.3134 40.6847 70.3705 42.4097C70.0304 43.0319 69.3373 43.3685 68.6343 43.2707Z" fill="#3F4045"/>
<path d="M2.75376 12.7928C3.14108 11.5156 3.83184 10.3314 4.75329 9.36534C4.99316 9.11358 5.25311 8.86944 5.40354 8.55593C5.50715 8.33941 5.54215 8.07782 5.47835 7.85217C3.62697 9.20601 2.33875 11.2808 2.02319 13.6637L2.04766 13.6663C2.44874 13.6534 2.63599 13.1771 2.75376 12.7928Z" fill="#EF3725"/>
<path d="M2.75376 40.6144C3.14108 41.8916 3.83184 43.0758 4.75329 44.0422C4.99316 44.2939 5.25311 44.5374 5.40354 44.8511C5.50715 45.0677 5.54215 45.3294 5.47835 45.5553C3.62697 44.2014 2.33875 42.1264 2.02319 39.7434L2.04766 39.7411C2.44874 39.754 2.63599 40.2299 2.75376 40.6144Z" fill="#EF3725"/>
</svg>
